<svg width="144" height="116" viewBox="0 0 144 116" fill="none" xmlns="http://www.w3.org/2000/svg">
<path d="M139.423 66.5181L114.982 66.997V97.6525H141V68.0639C141 67.1977 140.289 66.5005 139.423 66.5181Z" fill="#EEF7DC"/>
<path d="M87.9885 97.5577H96.7985V51.9407L88.492 54.1942C88.1962 54.2752 87.9885 54.5464 87.9885 54.8527V97.5577Z" fill="#D7EAA7"/>
<path d="M115.133 46.3031L96.1048 40.5494C95.4498 40.3522 94.7914 40.8417 94.7914 41.5248V97.6561H116.626L115.855 47.2643C115.848 46.8207 115.556 46.4298 115.133 46.3031Z" fill="#EEF7DC"/>
<path d="M100.513 54.37C101.101 54.37 101.577 53.8946 101.577 53.3066V52.0072C101.577 51.4192 101.101 50.9438 100.513 50.9438C99.9252 50.9438 99.4499 51.4192 99.4499 52.0072V53.3066C99.4499 53.8946 99.9252 54.37 100.513 54.37Z" fill="#D7EAA7"/>
<path d="M107.401 52.6553C107.989 52.6553 108.464 52.1799 108.464 51.5919V49.7116C108.464 49.1236 107.989 48.6482 107.401 48.6482C106.813 48.6482 106.337 49.1236 106.337 49.7116V51.5919C106.337 52.1799 106.813 52.6553 107.401 52.6553Z" fill="#D7EAA7"/>
<path d="M111.028 56.6658C111.616 56.6658 112.091 56.1904 112.091 55.6024V53.7221C112.091 53.1341 111.616 52.6587 111.028 52.6587C110.44 52.6587 109.964 53.1341 109.964 53.7221V55.6024C109.961 56.1904 110.44 56.6658 111.028 56.6658Z" fill="#D7EAA7"/>
<path d="M107.401 67.4793C107.989 67.4793 108.464 67.0039 108.464 66.4159V64.5356C108.464 63.9475 107.989 63.4722 107.401 63.4722C106.813 63.4722 106.337 63.9475 106.337 64.5356V66.4159C106.337 67.0039 106.813 67.4793 107.401 67.4793Z" fill="#D7EAA7"/>
<path d="M116.397 84.2511C116.204 84.2511 116.049 84.0962 116.045 83.9025L115.83 68.6628C115.827 68.4691 115.982 68.3071 116.179 68.3071H116.183C116.376 68.3071 116.531 68.4621 116.535 68.6557L116.749 83.8955C116.753 84.0891 116.598 84.2511 116.401 84.2511H116.397Z" fill="white"/>
<path d="M31.8923 66.4868L2.75439 66.9974V97.6529H31.8923V66.4868Z" fill="#EEF7DC"/>
<path d="M2.75439 66.9971L9.46229 62.9478C10.4834 62.3316 11.6454 61.983 12.8356 61.9337L32.2127 61.1238L32.2585 66.4866L2.75439 66.9971Z" fill="#D7EAA7"/>
<path d="M32.262 66.4868H24.364L11.8461 97.6529H31.8923L32.262 66.4868Z" fill="#D7EAA7"/>
<path d="M56.5512 97.5578H74.1712V50.8879C74.1712 50.4794 73.8402 50.1484 73.4318 50.1484H56.5547V97.5578H56.5512Z" fill="#EEF7DC"/>
<path d="M57.1604 41.0847L57.6498 97.5576H31.0155V41.634C31.0155 41.1235 31.424 40.7044 31.9381 40.6939L56.1991 40.1551C56.7202 40.141 57.1533 40.5601 57.1604 41.0847Z" fill="#EEF7DC"/>
<path d="M42.7129 48.9796C43.4489 48.9796 44.0439 48.3845 44.0439 47.6486V45.3845C44.0439 44.6485 43.4489 44.0535 42.7129 44.0535C41.977 44.0535 41.3819 44.6485 41.3819 45.3845V47.6486C41.3819 48.3845 41.977 48.9796 42.7129 48.9796Z" fill="#D7EAA7"/>
<path d="M36.7233 49.3454C37.4593 49.3454 38.0543 48.7503 38.0543 48.0143V46.4826C38.0543 45.7467 37.4593 45.1516 36.7233 45.1516C35.9874 45.1516 35.3923 45.7467 35.3923 46.4826V48.0143C35.3923 48.7503 35.9874 49.3454 36.7233 49.3454Z" fill="#D7EAA7"/>
<path d="M13.0328 73.381C13.5152 73.381 13.906 72.9901 13.906 72.5077V70.6521C13.906 70.1697 13.5152 69.7788 13.0328 69.7788C12.5504 69.7788 12.1595 70.1697 12.1595 70.6521V72.5077C12.1595 72.9866 12.5504 73.381 13.0328 73.381Z" fill="#D7EAA7"/>
<path d="M13.0328 80.5819C13.5152 80.5819 13.906 80.1911 13.906 79.7087V77.853C13.906 77.3706 13.5152 76.9797 13.0328 76.9797C12.5504 76.9797 12.1595 77.3706 12.1595 77.853V79.7087C12.1595 80.1911 12.5504 80.5819 13.0328 80.5819Z" fill="#D7EAA7"/>
<path d="M6.6805 80.5816C7.1629 80.5816 7.55375 80.1907 7.55375 79.7083V78.6626C7.55375 78.1802 7.1629 77.7893 6.6805 77.7893C6.1981 77.7893 5.80725 78.1802 5.80725 78.6626V79.7083C5.80725 80.1907 6.1981 80.5816 6.6805 80.5816Z" fill="#D7EAA7"/>
<path d="M19.4589 73.381C19.9413 73.381 20.3322 72.9901 20.3322 72.5077V70.6521C20.3322 70.1697 19.9413 69.7788 19.4589 69.7788C18.9765 69.7788 18.5857 70.1697 18.5857 70.6521V72.5077C18.5857 72.9866 18.9801 73.381 19.4589 73.381Z" fill="#D7EAA7"/>
<path d="M48.0334 56.2679C48.7694 56.2679 49.3645 55.6729 49.3645 54.9369V52.6728C49.3645 51.9369 48.7694 51.3418 48.0334 51.3418C47.2975 51.3418 46.7024 51.9369 46.7024 52.6728V54.9369C46.7024 55.6693 47.301 56.2679 48.0334 56.2679Z" fill="#D7EAA7"/>
<path d="M36.7233 66.0499C37.4593 66.0499 38.0543 65.4548 38.0543 64.7189V62.4548C38.0543 61.7189 37.4593 61.1238 36.7233 61.1238C35.9874 61.1238 35.3923 61.7189 35.3923 62.4548V64.7189C35.3923 65.4513 35.9874 66.0499 36.7233 66.0499Z" fill="#D7EAA7"/>
<path d="M57.5195 83.0044C57.3258 83.0044 57.1674 82.8495 57.1674 82.6558L56.8962 51.3454C56.8962 51.1517 57.0512 50.9932 57.2448 50.9897C57.4279 50.9827 57.597 51.1447 57.6005 51.3383L57.8716 82.6488C57.8751 82.8424 57.7167 83.0044 57.5195 83.0044C57.523 83.0044 57.523 83.0044 57.5195 83.0044Z" fill="white"/>
<path d="M132.26 60.56H134.796C135.201 60.56 135.528 60.2325 135.528 59.8276V47.3696C135.528 46.8027 135.116 46.3168 134.556 46.2217L132.26 45.8379V60.56Z" fill="#D7EAA7"/>
<path d="M127.831 60.5603H132.264C132.563 60.5603 132.81 60.3174 132.81 60.0146V46.3805C132.81 46.0565 132.528 45.803 132.204 45.8382L127.771 46.3453C127.496 46.377 127.288 46.6094 127.288 46.8875V60.0146C127.285 60.3139 127.531 60.5603 127.831 60.5603Z" fill="#EEF7DC"/>
<path d="M129.961 55.0568C130.613 55.0568 131.141 54.5286 131.141 53.8772V52.8913C131.141 52.2399 130.613 51.7117 129.961 51.7117C129.31 51.7117 128.781 52.2399 128.781 52.8913V53.8772C128.778 54.5286 129.31 55.0568 129.961 55.0568Z" fill="#D7EAA7"/>
<path d="M129.961 50.6342C130.613 50.6342 131.141 50.106 131.141 49.4546V48.4687C131.141 47.8172 130.613 47.2891 129.961 47.2891C129.31 47.2891 128.781 47.8172 128.781 48.4687V49.4546C128.778 50.106 129.31 50.6342 129.961 50.6342Z" fill="#FF6163"/>
<path d="M129.961 59.4792C130.613 59.4792 131.141 58.951 131.141 58.2996V57.3136C131.141 56.6622 130.613 56.134 129.961 56.134C129.31 56.134 128.781 56.6622 128.781 57.3136V58.2996C128.778 58.951 129.31 59.4792 129.961 59.4792Z" fill="#97CF00"/>
<path d="M132.141 101.1C132.693 101.1 133.141 100.652 133.141 100.1V60.5601H131.141V100.1C131.141 100.652 131.591 101.1 132.141 101.1Z" fill="#97CF00"/>
<path d="M133.141 60.5601V65.6165L131.141 63.3453V60.5601H133.141Z" fill="#59A800"/>
<path d="M76.96 106.202H72.6184C72.4247 106.202 72.2663 106.044 72.2663 105.85C72.2663 105.656 72.4247 105.498 72.6184 105.498H76.96C77.1537 105.498 77.3121 105.656 77.3121 105.85C77.3121 106.044 77.1572 106.202 76.96 106.202Z" fill="#97CF00"/>
<path d="M105.647 106.202H80.4425C80.2488 106.202 80.0904 106.044 80.0904 105.85C80.0904 105.656 80.2488 105.498 80.4425 105.498H105.647C105.841 105.498 105.999 105.656 105.999 105.85C105.999 106.044 105.844 106.202 105.647 106.202Z" fill="#97CF00"/>
<path d="M39.336 106.202H29.8288C29.6351 106.202 29.4767 106.044 29.4767 105.85C29.4767 105.656 29.6351 105.498 29.8288 105.498H39.336C39.5297 105.498 39.6881 105.656 39.6881 105.85C39.6881 106.044 39.5332 106.202 39.336 106.202Z" fill="#97CF00"/>
<path d="M37.4524 100.139L23.6 97.6845C21.938 97.3887 20.5823 95.9908 20.4239 94.209C20.4133 94.0858 20.4063 93.959 20.4063 93.8323C20.3816 91.5083 20.3394 87.4202 20.3394 87.4202L22.5789 84.9906L23.6951 78.0115C23.9979 76.1171 25.4697 74.684 27.2726 74.5256L32.5051 74.0643L45.8399 67.9867C49.2871 66.4163 52.9843 65.5536 56.7379 65.4479L68.122 65.124C72.3509 65.0043 76.5517 65.8458 80.4462 67.5994C85.0413 69.6734 91.478 73.022 97.9113 77.839C97.9113 77.839 106.985 79.5045 114.105 81.9095C121.225 84.3145 123.25 90.2231 123.25 90.2231L122.707 95.1809C122.457 97.4837 120.63 99.2267 118.447 99.2514L37.4524 100.139Z" fill="#97CF00"/>
<path d="M118.436 99.2546C119.795 99.2405 121.017 98.5574 121.806 97.4905L115.816 98.5081L115.665 99.2863L118.436 99.2546Z" fill="#59A800"/>
<path d="M70.4987 97.7829C70.4846 97.7829 70.4705 97.7829 70.4529 97.7794C70.2592 97.7547 70.1219 97.5787 70.1465 97.385C71.1219 89.6806 70.3508 79.4833 70.3437 79.3811C70.3296 79.1875 70.474 79.0185 70.6677 79.0044C70.8649 78.9903 71.0304 79.1347 71.0444 79.3283C71.0515 79.4304 71.8297 89.6982 70.8438 97.4766C70.8261 97.6526 70.6747 97.7829 70.4987 97.7829Z" fill="#59A800"/>
<path d="M93.4885 98.0681H93.4849L56.6955 97.6667C56.6004 97.6667 56.5089 97.6244 56.442 97.554L41.8537 82.0044C41.8079 81.9551 41.7762 81.8952 41.7657 81.8283C41.7445 81.7157 41.2586 79.0255 43.3326 75.9902C43.4418 75.8282 43.6601 75.7895 43.822 75.8986C43.984 76.0078 44.0227 76.2261 43.9136 76.3881C42.2129 78.8776 42.3819 81.1206 42.4453 81.603L56.8575 96.9659L93.242 97.3603C96.7033 87.0679 94.2983 80.8142 94.2737 80.7544C94.1997 80.5748 94.2913 80.3706 94.4709 80.2966C94.6505 80.2262 94.8547 80.3142 94.9286 80.4938C95.0343 80.7614 97.4921 87.1524 93.8265 97.8322C93.7737 97.973 93.6399 98.0681 93.4885 98.0681Z" fill="#59A800"/>
<path d="M23.6879 78.0115L30.5965 78.5045C32.262 78.6136 32.8641 80.3073 31.1317 81.4235C27.7584 83.5926 22.7125 84.1313 22.7125 84.1313L23.6879 78.0115Z" fill="#EA3F50"/>
<path d="M120.968 85.9971C121.123 86.6873 121.13 87.3176 119.926 87.3317C118.869 87.3422 117.239 87.145 115.563 86.3352C113.978 85.5711 112.175 84.2612 110.89 83.2541C110.359 82.8386 109.51 82.0076 111.327 81.9865C112.51 81.9724 115.408 82.3245 117.285 82.5745C119.038 82.8069 120.531 84.1239 120.954 85.9443C120.961 85.9619 120.964 85.9795 120.968 85.9971Z" fill="white"/>
<path d="M73.7733 82.2262C73.9775 83.0783 75.1219 85.3952 79.9037 83.0642C80.3333 82.8565 80.1572 82.5219 79.9002 82.4938C77.7487 82.2508 76.2628 82.0853 74.0374 81.8776C73.8578 81.8635 73.7099 81.9586 73.7733 82.2262Z" fill="#59A800"/>
<path d="M45.801 80.2299C46.0932 81.0715 47.2588 82.8426 51.7201 80.6243C51.9701 80.5011 51.8891 80.1137 51.611 80.1032L46.0721 79.8637C45.8785 79.8567 45.7376 80.0468 45.801 80.2299Z" fill="#59A800"/>
<path d="M118.887 86.6525C118.348 86.6525 117.686 86.3461 117.095 85.8144C116.123 84.9447 115.739 83.8496 116.2 83.2651C116.577 82.7897 117.366 82.8144 118.204 83.3355C118.369 83.4376 118.419 83.656 118.316 83.8214C118.214 83.9869 117.996 84.0362 117.831 83.9341C117.253 83.575 116.845 83.582 116.75 83.7017C116.591 83.9024 116.834 84.6384 117.563 85.2898C118.109 85.7792 118.647 85.9729 118.94 85.9483C119.024 85.9412 119.084 85.9166 119.116 85.8778C119.214 85.7546 119.172 85.3426 118.774 84.8074C118.658 84.6525 118.693 84.4306 118.848 84.3144C119.007 84.1982 119.225 84.2334 119.341 84.3884C119.894 85.1349 120.017 85.8743 119.669 86.3145C119.514 86.5116 119.281 86.6243 119.003 86.649C118.961 86.649 118.926 86.6525 118.887 86.6525Z" fill="#EAE5DB"/>
<mask id="mask0" mask-type="alpha" maskUnits="userSpaceOnUse" x="40" y="66" width="58" height="14">
<path d="M96.7703 78.7998C94.2773 76.6554 87.5835 71.4124 78.2066 68.0285C75.7769 67.1517 73.2135 66.7432 70.6501 66.8031L57.9456 67.113C55.7519 67.1658 53.5793 67.5848 51.5124 68.363C48.7025 69.4193 44.5369 71.0637 41.072 72.7539C40.3608 73.1025 39.9136 73.9969 41.1742 74.4511L46.5088 76.261C46.9207 76.4019 47.3468 76.4864 47.7764 76.5146L96.4463 79.6766C97.2949 79.7188 97.1189 79.0991 96.7703 78.7998Z" fill="black"/>
</mask>
<g mask="url(#mask0)">
<path d="M96.7703 78.7998C94.2773 76.6554 87.5835 71.4124 78.2066 68.0285C75.7769 67.1517 73.2135 66.7432 70.6501 66.8031L57.9456 67.113C55.7519 67.1658 53.5793 67.5848 51.5124 68.363C48.7025 69.4193 44.5369 71.0637 41.072 72.7539C40.3608 73.1025 39.9136 73.9969 41.1742 74.4511L46.5088 76.261C46.9207 76.4019 47.3468 76.4864 47.7764 76.5146L96.4463 79.6766C97.2949 79.7188 97.1189 79.0991 96.7703 78.7998Z" fill="black"/>
<path d="M91.5413 78.5955L88.5306 78.4793C87.9567 78.4582 87.499 77.9582 87.4919 77.349L87.4743 75.6553C87.4602 74.4898 88.4179 74.0884 90.6222 74.8173C90.6222 74.8173 91.58 76.0497 92.2314 77.4406C92.4814 77.9828 92.1117 78.6166 91.5413 78.5955Z" fill="#59A800"/>
<path d="M70.9494 66.4294L82.6186 79.1445L78.1643 79.0001L67.4352 66.4928L70.9494 66.4294Z" fill="#006833"/>
<path d="M56.8857 65.6831L66.6606 78.5707L59.4703 78.5249L49.794 66.1937L56.8857 65.6831Z" fill="#006833"/>
</g>
<path d="M20.4202 94.2088C20.5787 95.9905 21.9343 97.3919 23.5963 97.6842L30.9592 98.987L31.5613 97.7159L26.0858 96.6948C25.2302 96.5363 24.5753 95.8497 24.452 94.987L23.7478 89.9657C23.5435 88.5045 22.2935 87.4199 20.8181 87.4199H20.3322C20.3322 87.4199 20.3745 91.508 20.3991 93.832C20.4026 93.9588 20.4097 94.0855 20.4202 94.2088Z" fill="#59A800"/>
<path d="M50.7729 99.98C50.5828 99.98 50.4243 99.825 50.4243 99.6349C50.4208 99.4412 50.5757 99.2828 50.7694 99.2828L96.0238 98.7898C96.2209 98.8004 96.3759 98.9412 96.3759 99.1349C96.3794 99.3285 96.2245 99.487 96.0308 99.487L50.7764 99.98C50.7764 99.98 50.7764 99.98 50.7729 99.98Z" fill="#59A800"/>
<path d="M30.9591 98.9871C30.9486 98.8005 30.938 98.7089 30.9345 98.5223C30.8676 92.1525 35.2761 86.9376 40.7832 86.8777C46.2904 86.8179 50.8081 91.9341 50.875 98.304C50.882 98.8779 50.8398 99.4378 50.7729 99.9906L36.9839 100.142L30.9591 98.9871Z" fill="black"/>
<path d="M32.1318 97.8188C32.1846 102.868 36.2516 106.918 41.2165 106.861C46.1813 106.808 50.4314 102.668 50.3786 97.6181C50.3258 92.5687 45.9877 88.5229 41.0228 88.5757C36.0579 88.632 32.079 92.7694 32.1318 97.8188Z" fill="black"/>
<path d="M49.3504 97.9835C49.1567 97.9835 49.0018 97.8286 48.9983 97.6349C48.9736 95.2828 48.0898 93.082 46.5053 91.4376C44.9278 89.8003 42.8397 88.9094 40.646 88.9341C40.4453 88.9446 40.2939 88.7791 40.2904 88.5855C40.2869 88.3918 40.4453 88.2334 40.639 88.2298C43.051 88.2087 45.301 89.17 47.0123 90.9482C48.7201 92.7229 49.6743 95.0926 49.699 97.6244C49.7025 97.818 49.5441 97.9765 49.3504 97.98C49.3539 97.9835 49.3504 97.9835 49.3504 97.9835Z" fill="#683D34"/>
<path d="M40.8089 104.91C44.5447 104.88 47.5474 101.64 47.5156 97.6728C47.4838 93.7056 44.4296 90.5138 40.6939 90.5437C36.9581 90.5736 33.9554 93.8139 33.9872 97.7811C34.019 101.748 37.0732 104.94 40.8089 104.91Z" fill="#EAE5DB"/>
<path d="M40.7909 102.65C43.3501 102.63 45.4071 100.409 45.3853 97.6904C45.3636 94.9717 43.2712 92.7844 40.712 92.8049C38.1528 92.8254 36.0958 95.046 36.1176 97.7647C36.1393 100.483 38.2316 102.671 40.7909 102.65Z" fill="#D1C6B0"/>
<path d="M44.8468 95.7968C44.713 95.7968 44.5862 95.7228 44.5263 95.5926C43.558 93.5256 41.3432 93.1981 41.3185 93.1946C41.1249 93.1664 40.9911 92.9904 41.0192 92.7967C41.0474 92.6031 41.22 92.4692 41.4136 92.4939C41.5193 92.508 44.0263 92.8707 45.1637 95.2897C45.2447 95.4658 45.1707 95.6771 44.9947 95.7581C44.9489 95.7862 44.8961 95.7968 44.8468 95.7968Z" fill="white"/>
<path d="M96.0273 99.4979C96.0238 99.1915 96.0238 98.8359 96.0238 98.7232C95.9569 92.3991 100.334 87.223 105.799 87.1631C111.264 87.1033 115.75 92.1808 115.816 98.5084C115.82 98.769 115.809 99.0295 115.795 99.2866L98.1858 99.4767L96.0273 99.4979Z" fill="black"/>
<path d="M105.253 106.731C110.225 106.731 114.257 102.638 114.257 97.5895C114.257 92.5411 110.225 88.4485 105.253 88.4485C100.28 88.4485 96.2492 92.5411 96.2492 97.5895C96.2492 102.638 100.28 106.731 105.253 106.731Z" fill="black"/>
<path d="M114.257 97.8429C114.063 97.8429 113.908 97.688 113.904 97.4943C113.88 95.1422 112.996 92.9414 111.411 91.297C109.855 89.6808 107.809 88.7935 105.64 88.7935C105.608 88.7935 105.584 88.7935 105.549 88.7935C105.355 88.7935 105.2 88.6385 105.197 88.4449C105.193 88.2512 105.351 88.0927 105.545 88.0892C107.94 88.0611 110.207 89.0294 111.918 90.8076C113.626 92.5823 114.581 94.952 114.605 97.4838C114.609 97.6774 114.45 97.8359 114.257 97.8394C114.26 97.8429 114.26 97.8429 114.257 97.8429Z" fill="#683D34"/>
<path d="M105.717 104.77C109.453 104.74 112.456 101.5 112.424 97.5329C112.392 93.5657 109.338 90.3739 105.602 90.4038C101.866 90.4337 98.8637 93.674 98.8954 97.6412C98.9272 101.608 101.981 104.8 105.717 104.77Z" fill="#EAE5DB"/>
<path d="M105.703 102.794C108.262 102.774 110.319 100.553 110.297 97.8345C110.275 95.1158 108.183 92.9285 105.624 92.949C103.065 92.9695 101.008 95.19 101.029 97.9087C101.051 100.627 103.143 102.815 105.703 102.794Z" fill="#D1C6B0"/>
<path d="M109.756 95.6596C109.623 95.6596 109.496 95.5856 109.436 95.4553C108.468 93.3884 106.253 93.0609 106.228 93.0574C106.035 93.0292 105.901 92.8532 105.929 92.6595C105.954 92.4658 106.13 92.332 106.323 92.3567C106.429 92.3708 108.936 92.7335 110.073 95.1525C110.154 95.3286 110.08 95.5398 109.904 95.6208C109.855 95.649 109.806 95.6596 109.756 95.6596Z" fill="white"/>
<path d="M110.957 81.2827C110.925 81.2827 110.894 81.2792 110.859 81.2686C104.746 79.5257 97.8971 78.1982 97.8302 78.1876C97.6401 78.1524 97.5133 77.9658 97.552 77.7756C97.5872 77.5855 97.7703 77.4587 97.964 77.4975C98.0344 77.5115 104.911 78.8425 111.052 80.5926C111.239 80.6454 111.348 80.8426 111.295 81.0292C111.253 81.1806 111.112 81.2827 110.957 81.2827Z" fill="white"/>
<path d="M59.4808 101.083C58.8047 101.083 58.2519 100.537 58.2484 99.8573C58.2449 99.1777 58.7907 98.6214 59.4738 98.6179L67.893 98.5615C67.8965 98.5615 67.9 98.5615 67.9 98.5615C68.5761 98.5615 69.1289 99.1073 69.1324 99.7869C69.1359 100.467 68.5901 101.023 67.907 101.026L59.4879 101.083C59.4879 101.083 59.4843 101.083 59.4808 101.083Z" fill="#97CF00"/>
<path d="M69.1324 99.783C69.1289 99.1069 68.5761 98.5576 67.9 98.5576C67.8965 98.5576 67.893 98.5576 67.893 98.5576L59.4738 98.614C58.7942 98.6175 58.2449 99.1738 58.2484 99.8534C58.2484 99.871 58.2519 99.8886 58.2554 99.9062L69.1324 99.7865C69.1324 99.79 69.1324 99.7865 69.1324 99.783Z" fill="#59A800"/>
<path d="M68.907 99.0825L58.4421 99.1952C58.3223 99.3889 58.2484 99.6142 58.2519 99.8572C58.2519 99.8713 58.2554 99.8818 58.2554 99.8959L69.1324 99.7762C69.1289 99.5192 69.0444 99.2797 68.907 99.0825Z" fill="#358800"/>
</svg>
