<svg width="24" height="24" viewBox="0 0 24 24" fill="none" xmlns="http://www.w3.org/2000/svg">
<path d="M6 3H18C18.1924 3.0004 18.3805 3.05628 18.5419 3.16092C18.7033 3.26557 18.8311 3.41455 18.91 3.59L23 12.77V21C23 21.2652 22.8946 21.5196 22.7071 21.7071C22.5196 21.8946 22.2652 22 22 22H20C19.7348 22 19.4804 21.8946 19.2929 21.7071C19.1054 21.5196 19 21.2652 19 21V19H5V21C5 21.2652 4.89464 21.5196 4.70711 21.7071C4.51957 21.8946 4.26522 22 4 22H2C1.73478 22 1.48043 21.8946 1.29289 21.7071C1.10536 21.5196 1 21.2652 1 21V12.77L5.09 3.59C5.16887 3.41455 5.29667 3.26557 5.45807 3.16092C5.61948 3.05628 5.80764 3.0004 6 3ZM6.65 5L4.43 10H19.57L17.35 5H6.65ZM10 14C9.44771 14 9 14.4477 9 15C9 15.5523 9.44771 16 10 16H14C14.5523 16 15 15.5523 15 15C15 14.4477 14.5523 14 14 14H10ZM3 13C3 13.5523 3.44772 14 4 14H6C6.55228 14 7 13.5523 7 13C7 12.4477 6.55228 12 6 12H4C3.44772 12 3 12.4477 3 13ZM18 12C17.4477 12 17 12.4477 17 13C17 13.5523 17.4477 14 18 14H20C20.5523 14 21 13.5523 21 13C21 12.4477 20.5523 12 20 12H18Z" fill="black"/>
</svg>
