<svg width="48" height="48" viewBox="0 0 48 48" fill="none" xmlns="http://www.w3.org/2000/svg">
<path fill-rule="evenodd" clip-rule="evenodd" d="M24 48C37.2548 48 48 37.2548 48 24C48 10.7452 37.2548 0 24 0C10.7452 0 0 10.7452 0 24C0 37.2548 10.7452 48 24 48Z" fill="#FFB021"/>
<path fill-rule="evenodd" clip-rule="evenodd" d="M24 48C37.2548 48 48 37.2548 48 24C48 10.7452 37.2548 0 24 0C10.7452 0 0 10.7452 0 24C0 37.2548 10.7452 48 24 48Z" fill="#FFB021"/>
<g opacity="0.7">
<path fill-rule="evenodd" clip-rule="evenodd" d="M19.3233 24.924L16.6716 27.5756L11.9982 22.9022L7.32481 27.5756L4.67316 24.924L9.34657 20.2505L4.67163 15.5756L7.32328 12.924L11.9982 17.5989L16.6732 12.924L19.3248 15.5756L14.6499 20.2505L19.3233 24.924Z" fill="white"/>
</g>
<path fill-rule="evenodd" clip-rule="evenodd" d="M27.9272 36.2578C26.52 36.2578 25.1826 35.9678 23.915 35.3877C22.7764 34.8828 21.7773 34.2222 20.918 33.4058L22.2876 31.5366C22.5776 31.1392 22.9536 30.9404 23.4155 30.9404C23.7163 30.9404 24.001 31.0264 24.2695 31.1982C24.334 31.2305 24.4307 31.2896 24.5596 31.3755C25.29 31.8267 25.9238 32.1489 26.4609 32.3423C26.9121 32.5142 27.4868 32.6001 28.1851 32.6001C29.5278 32.6001 30.5644 32.165 31.2949 31.2949C31.9609 30.5 32.2939 29.4312 32.2939 28.0884C32.2939 26.8638 31.9448 25.9238 31.2466 25.2686C30.5483 24.6133 29.5439 24.2856 28.2334 24.2856C27.1592 24.2856 26.0689 24.4897 24.9624 24.8979L22.207 24.1245L24.1728 12.6196H35.9033V14.4888C35.9033 15.144 35.71 15.6436 35.3232 15.9873C34.8935 16.3848 34.2222 16.5835 33.3091 16.5835H27.2666L26.5093 20.9985C27.4224 20.8159 28.3193 20.7246 29.2002 20.7246C30.3926 20.7246 31.4614 20.9045 32.4067 21.2644C33.352 21.6243 34.1577 22.1372 34.8237 22.8032C35.4575 23.437 35.9355 24.189 36.2578 25.0591C36.5801 25.9292 36.7412 26.8691 36.7412 27.8789C36.7412 29.1035 36.5264 30.2288 36.0967 31.2546C35.667 32.2805 35.0547 33.1694 34.2598 33.9214C33.4648 34.6733 32.5276 35.2507 31.448 35.6536C30.3684 36.0564 29.1948 36.2578 27.9272 36.2578Z" fill="white"/>
</svg>
